<svg xmlns="http://www.w3.org/2000/svg">
    <symbol id="block">
        <path d="M 15 2 C 11.145666 2 8 5.1456661 8 9 L 8 11 L 6 11 C 4.895 11 4 11.895 4 13 L 4 25 C 4 26.105 4.895 27 6 27 L 24 27 C 25.105 27 26 26.105 26 25 L 26 13 C 26 11.895 25.105 11 24 11 L 22 11 L 22 9 C 22 5.2715823 19.036581 2.2685653 15.355469 2.0722656 A 1.0001 1.0001 0 0 0 15 2 z M 15 4 C 17.773666 4 20 6.2263339 20 9 L 20 11 L 10 11 L 10 9 C 10 6.2263339 12.226334 4 15 4 z"/>
    </symbol>
    <symbol id="unblock">
        <path d="M 15 2 C 11.145666 2 8 5.1456661 8 9 L 8 11 L 6 11 C 4.895 11 4 11.895 4 13 L 4 25 C 4 26.105 4.895 27 6 27 L 24 27 C 25.105 27 26 26.105 26 25 L 26 13 C 26 11.895 25.105 11 24 11 L 10 11 L 10 9 C 10 6.2263339 12.226334 4 15 4 C 17.184344 4 19.022854 5.3946656 19.708984 7.3339844 A 1.0001 1.0001 0 1 0 21.59375 6.6660156 C 20.631881 3.9473344 18.037656 2 15 2 z"/>
    </symbol>
    <symbol id="delete">
        <path d="M 13 3 A 1.0001 1.0001 0 0 0 11.986328 4 L 6 4 A 1.0001 1.0001 0 1 0 6 6 L 24 6 A 1.0001 1.0001 0 1 0 24 4 L 18.013672 4 A 1.0001 1.0001 0 0 0 17 3 L 13 3 z M 6 8 L 6 24 C 6 25.105 6.895 26 8 26 L 22 26 C 23.105 26 24 25.105 24 24 L 24 8 L 6 8 z"/>
    </symbol>
</svg>